<?xml version="1.0" encoding="UTF-8" standalone="no"?>
<!-- Created with Inkscape (http://www.inkscape.org/) -->

<svg
   version="1.1"
   id="svg2"
   width="144"
   height="144"
   viewBox="0 0 144 144"
   xmlns="http://www.w3.org/2000/svg"
   xmlns:svg="http://www.w3.org/2000/svg">
  <defs
     id="defs6" />
  <g
     id="g8"
     transform="matrix(1.3333333,0,0,-1.3333333,0,144)">
    <g
       id="g10"
       transform="scale(0.1)">
      <path
         d="m 913.949,619.141 c 0,199.039 -161.179,360.39 -360,360.39 -198.82,0 -360,-161.351 -360,-360.39 0,-199.039 161.18,-360.391 360,-360.391 198.821,0 360,161.352 360,360.391"
         style="fill:#c00000;fill-opacity:1;fill-rule:evenodd;stroke:none"
         id="path12" />
      <path
         d="M 446.594,148.086 C 446.273,118.594 438.828,95.8555 423.297,80.4609 410.578,68.0117 395.5,61.6797 377.406,61.6797 H 334.641 V 224.617 h 42.531 c 17.75,0.02 33.379,-5.933 46.359,-17.797 15.078,-13.84 23.063,-33.703 23.063,-58.734 z m -18.985,0.141 c -0.324,18.546 -5.601,32.757 -16.796,43.093 -9.633,8.993 -20.844,13.313 -33.813,13.313 H 353.625 V 81.6797 h 23.609 c 13.102,0 24.579,4.9141 33.829,14.75 10.89,12.0313 16.546,29.2113 16.546,51.7973 z M 637.543,212.695 609.699,68.6484 c -1.914,-5.9687 -5.933,-8.9687 -12.422,-8.9687 -6.812,0 -10.562,2.875 -12.187,8.625 L 555.309,175.758 528.199,68.6172 c -1.89,-5.9375 -5.711,-8.9375 -12.312,-8.9375 -7.258,0 -11.258,2.9883 -12.547,8.9687 L 473.574,212.695 c -0.234,1.192 -0.234,1.727 -0.234,2.594 0,3.223 1.023,5.586 3.078,7.484 2.023,2.196 4.414,2.844 7.094,2.844 5.297,0.02 8.582,-3.047 9.687,-9.14 l 23.281,-112.625 28.641,113.156 c 1.02,5.961 4.563,8.609 9.844,8.609 4.914,0.02 8.328,-2.449 9.609,-7.344 l 31.5,-114.703 21.844,112.907 c 0.898,6.16 4.242,9.14 9.453,9.14 3.145,0.02 5.801,-1.211 7.938,-3.625 1.812,-2.187 2.879,-5.515 2.234,-9.297 z M 778.121,70.7422 c -0.32,-6.3984 -3.125,-10.0625 -9.375,-10.0625 -6.601,0 -9.609,3.332 -9.609,10 V 136.648 H 685.152 V 70.6797 c -0.328,-6.668 -3.125,-10 -9.375,-10 -6.609,0 -9.609,3.3516 -9.609,10.0625 V 214.57 c 0,6.735 3.203,10.047 9.609,10.047 6.047,0.02 9.375,-3.371 9.375,-10.109 v -57.86 h 73.985 v 57.86 c -0.324,6.797 3.203,10.109 9.609,10.109 6.055,0.02 9.375,-3.351 9.375,-10.047 z"
         style="fill:#000000;fill-opacity:1;fill-rule:nonzero;stroke:#000000;stroke-width:6.864;stroke-linecap:butt;stroke-linejoin:miter;stroke-miterlimit:10;stroke-dasharray:none;stroke-opacity:1"
         id="path14" />
      <path
         d="m 733.949,619.531 c 0,99.41 -80.59,180 -180,180 -99.41,0 -180,-80.59 -180,-180 0,-99.41 80.59,-180 180,-180 99.41,0 180,80.59 180,180"
         style="fill:#ffff00;fill-opacity:1;fill-rule:evenodd;stroke:none"
         id="path16" />
      <path
         d="M 880.77,766.441 654.789,510.859 450.059,725.148 227.699,460.391 C 315.941,281.07 532.102,207.602 710.5,296.301 883.102,382.109 958.09,589.16 880.77,766.441"
         style="fill:#4e89f8;fill-opacity:1;fill-rule:evenodd;stroke:none"
         id="path18" />
      <path
         d="M 53.3242,249.73 451.172,728.391 651.621,508.609 957.461,852.719"
         style="fill:none;stroke:#000000;stroke-width:30;stroke-linecap:round;stroke-linejoin:round;stroke-miterlimit:10;stroke-dasharray:none;stroke-opacity:1"
         id="path20" />
      <path
         d="M 900.449,882.512 1071.5,980.98 993.73,799.602 Z"
         style="fill:#000000;fill-opacity:1;fill-rule:evenodd;stroke:none"
         id="path22" />
      <path
         d="M 885.281,470.352 800.781,557.16 662.199,401.68 461.75,623.16 273.91,396.371 C 393.211,238.219 617.129,207.469 774.07,327.68 822.629,364.879 860.922,414 885.281,470.352"
         style="fill:#002060;fill-opacity:1;fill-rule:evenodd;stroke:none"
         id="path24" />
      <path
         d="M 272.699,402.52 455.621,630 652.5,407.109 l 146.25,161.719 81.449,-89.93"
         style="fill:none;stroke:#f2f2f2;stroke-width:22.5;stroke-linecap:round;stroke-linejoin:round;stroke-miterlimit:10;stroke-dasharray:none;stroke-opacity:1"
         id="path26" />
      <path
         d="m 913.949,619.531 c 0,198.821 -161.179,360 -360,360 -198.82,0 -360,-161.179 -360,-360 0,-198.82 161.18,-360 360,-360 198.821,0 360,161.18 360,360 z"
         style="fill:none;stroke:#000000;stroke-width:22.5;stroke-linecap:round;stroke-linejoin:round;stroke-miterlimit:10;stroke-dasharray:none;stroke-opacity:1"
         id="path28" />
    </g>
  </g>
</svg>
